<?xml version="1.0" standalone="no"?>
<!DOCTYPE svg PUBLIC "-//W3C//DTD SVG 1.1//EN" "http://www.w3.org/Graphics/SVG/1.1/DTD/svg11.dtd" >
<svg xmlns="http://www.w3.org/2000/svg">
<metadata>Generated by IcoMoon</metadata>
<defs>
<font id="la-volpe" horiz-adv-x="1024">
<font-face units-per-em="1024" ascent="960" descent="-64" />
<missing-glyph horiz-adv-x="1024" />
<glyph unicode="&#x20;" horiz-adv-x="512" d="" />
<glyph unicode="&#xe900;" horiz-adv-x="724" d="M355.069 108.249c95.362-5.406 180.539 2.75 204.566-104.889-82.172 36.808-118.69 26.307-204.566 26.307l28.862 21.085-28.862 18.198 30.063 17.147-30.063 22.157zM187.825 22.917c137.483-33.283 358.1 14.58 396.802-77.717 6.198 65.879-14.068 131.943-71.57 160.782-91.021 45.638-241.113 3.762-327.853 6.76-41.488 1.423-107.026 25.088-83.674 80.009 12.427 29.228 53.347 52.81 108.526 73.309-62.108-19.315-115.164-38.702-140.535-79.379-12.237-19.631-15.93-39.294-13.282-57.681 8.72-60.475 78.040-93.122 131.574-106.075z" />
<glyph unicode="&#xe901;" horiz-adv-x="724" d="M520.328 695.102c-14.826-10.712-26.776 10.984-33.523 29.201l33.523-29.201zM352.001 608.662c-11.396 32.276-11.633 63.889 1.333 85.183-2.391-21.547 0.673-45.425 12.108-64.142 0.315 29.945-3.762 45.048 25.173 55.902 19.695 7.372 39.547 3.219 56.633-4.141 44.036-18.951 77.988-63.067 135.136-63.094 2.055-12.029 2.758-22.119 14.51-24.495 7.135-1.427 11.050-0.536 17.901 1.549 7.871 2.382 8.317 4.078 14.527 9.944-118.654 17.264-55.986 157.22-167.167 187.43-44.099 11.981-103.543-4.795-127.785-49.269-20.264-37.198-7.998-103.584 17.631-134.878z" />
<glyph unicode="&#xe902;" horiz-adv-x="724" d="M332.659 603.85c-12.074 32.367-31.834 69.237-25.069 112.003 14.497 91.578 81.904 80.93 126.337 116.549 24.247 19.442 46.232 92.698 50.422 124.397-67.294-75.376-117.059-91.73-165.997-141.41-35.929-36.464-47.272-85.322-30.609-133.771 9.329-27.145 27.092-53.54 44.921-77.742z" />
<glyph unicode="&#xe903;" horiz-adv-x="724" d="M161.403 582.942c6.398-36.621 23.34-68.839 48.132-95.312 39.067-41.709 96.299-69.136 152.214-76.921-84.69 22.413-179.292 87.859-178.75 193.316-2.762 77.482 49.094 137.497 96.589 192.946-66.449-53.169-134.493-120.665-118.191-214.046z" />
<glyph unicode="&#xe904;" horiz-adv-x="724" d="M494.29 436.725c2.757-5.536 5.406-11.539 7.935-18.157 12.26-32.074 13.389-70.070 5.139-102.641-30.631-120.762-220.823-157.992-324.616-165.765 149.707-7.176 481.058 74.621 352.449 279.865-13.652 21.781-33.005 42.615-54.911 60.337-22.038 17.82-46.692 32.505-70.724 41.861 36.038-30.535 63.033-51.984 84.732-95.501z" />
<glyph unicode="&#xe905;" horiz-adv-x="724" d="M527.356 462.421c-14.397 23.080-26.5 34.852-47.694 50.738-4.625 3.464-9.342 6.895-14.088 10.274-35.056 24.98-71.286 47.577-76.695 67.188-5.575 20.225 9.969 31.826 26.235 34.428 16.323 2.624 32.34-3.055 49.094-12.803 21.275-12.386 43.783-28.447 69.686-32.131 27.622-3.929 47.929 3.153 71.539 6.249-39.105-0.871-64.863-8.671-110.403 21.465-22.657 14.985-52.473 49.778-95.316 32.816-33.987-13.446-41.128-50.2 2.997-82.196 6.67-4.27 13.497-9.441 20.382-13.688 9.958-6.164 21.907-13.804 34.204-21.7 4.74-3.047 9.531-6.124 14.291-9.183 28.799-18.493 35.7-27.412 55.779-51.48z" />
<glyph unicode="&#xe906;" horiz-adv-x="724" d="M320.537 497.214c-86.673 63.32-116.302 142.92-61.335 248.388-8.769-14.286-18.051-25.823-24.991-39.189-17.91-34.489-23.703-70.463-12.957-108.019 12.682-44.352 49.094-81.173 99.283-101.191z" />
<glyph unicode="&#xe907;" horiz-adv-x="724" d="M358.848 208.861c82.552-4.683 156.304 2.382 177.105-90.805-71.143 31.863-102.748 22.773-177.105 22.773l24.98 18.259-24.98 15.758 26.024 14.841-26.024 19.174zM214.055 134.986c119.030-28.807 310.015 12.629 343.518-67.278 5.365 57.033-12.17 114.227-61.959 139.192-78.805 39.513-208.743 3.265-283.82 5.854-35.913 1.238-92.658 21.722-72.431 69.257 10.766 25.298 46.187 45.714 93.951 63.464-53.763-16.717-99.706-33.503-121.667-68.724-10.601-17.004-13.792-34.012-11.497-49.93 7.55-52.363 67.555-80.62 113.905-91.835z" />
<glyph unicode="&#xe908;" horiz-adv-x="724" d="M501.908 716.915c-12.833-9.267-23.189 9.514-29.018 25.282l29.018-25.282zM356.19 642.070c-9.861 27.946-10.071 55.308 1.153 73.739-2.073-18.657 0.589-39.317 10.478-55.524 0.273 25.93-3.263 39.002 21.79 48.392 17.046 6.389 34.241 2.789 49.033-3.578 38.121-16.411 67.515-54.602 116.983-54.623 1.773-10.409 2.394-19.152 12.566-21.199 6.18-1.243 9.57-0.456 15.495 1.339 6.819 2.068 7.208 3.532 12.58 8.604-102.725 14.945-48.461 136.113-144.719 162.258-38.178 10.369-89.644-4.154-110.624-42.649-17.547-32.197-6.919-89.669 15.266-116.761z" />
<glyph unicode="&#xe909;" horiz-adv-x="724" d="M339.444 637.906c-10.453 28.022-27.566 59.938-21.708 96.955 12.546 79.273 70.898 70.062 109.368 100.892 20.996 16.826 40.020 80.247 43.65 107.701-58.251-65.251-101.332-79.415-143.702-122.428-31.1-31.572-40.929-73.864-26.496-115.811 8.084-23.494 23.46-46.353 38.888-67.309z" />
<glyph unicode="&#xe90a;" horiz-adv-x="724" d="M191.179 619.817c5.535-31.7 20.203-59.599 41.664-82.511 33.822-36.113 83.366-59.853 131.77-66.598-73.312 19.404-155.22 76.068-154.744 167.364-2.397 67.082 42.498 119.038 83.624 167.042-57.526-46.031-116.43-104.454-102.313-185.296z" />
<glyph unicode="&#xe90b;" horiz-adv-x="724" d="M479.377 493.23c2.393-4.8 4.684-9.987 6.874-15.716 10.615-27.762 11.595-60.656 4.444-88.851-26.51-104.546-191.176-136.779-281.021-143.508 129.606-6.22 416.465 64.596 305.13 242.281-11.82 18.864-28.573 36.893-47.545 52.23-19.086 15.43-40.418 28.138-61.234 36.238 31.199-26.435 54.57-45 73.351-82.674z" />
<glyph unicode="&#xe90c;" horiz-adv-x="724" d="M507.994 515.468c-12.469 19.98-22.939 30.168-41.284 43.93-4.002 3.003-8.092 5.968-12.199 8.896-30.341 21.624-61.717 41.19-66.396 58.171-4.823 17.511 8.636 27.546 22.713 29.813 14.128 2.276 27.993-2.639 42.509-11.087 18.426-10.724 37.912-24.628 60.325-27.813 23.915-3.399 41.492 2.732 61.935 5.412-33.854-0.758-56.155-7.504-95.574 18.577-19.608 12.973-45.428 43.088-82.524 28.409-29.431-11.646-35.603-43.459 2.588-71.158 5.773-3.705 11.676-8.168 17.639-11.858 8.615-5.333 18.958-11.945 29.611-18.782 4.104-2.635 8.255-5.304 12.372-7.946 24.939-16.011 30.912-23.739 48.285-44.563z" />
<glyph unicode="&#xe90d;" horiz-adv-x="724" d="M519.158 904.848c-25.765-40.949-57.58-70.673-95.282-89.478 16.727 1.841 32.16-0.119 45.939-6.86 40.259 23.846 48.874 51.397 49.343 96.338z" />
<glyph unicode="&#xe90e;" horiz-adv-x="724" d="M328.945 545.598c-75.036 54.823-100.684 123.724-53.097 215.040-7.597-12.369-15.619-22.348-21.631-33.929-15.5-29.86-20.521-60.993-11.218-93.506 10.986-38.396 42.497-70.275 85.946-87.605z" />
<glyph unicode="&#xe90f;" horiz-adv-x="724" d="M358.848 192.861c82.552-4.683 156.304 2.382 177.105-90.805-71.143 31.863-102.748 22.773-177.105 22.773l24.98 18.259-24.98 15.758 26.024 14.841-26.024 19.174zM214.055 118.986c119.030-28.807 310.015 12.629 343.518-67.278 5.365 57.033-12.17 114.227-61.959 139.192-78.805 39.513-208.743 3.265-283.82 5.854-35.913 1.238-92.658 21.722-72.431 69.257 10.766 25.298 46.187 45.714 93.951 63.464-53.763-16.717-99.706-33.503-121.667-68.724-10.601-17.004-13.792-34.012-11.497-49.93 7.55-52.363 67.555-80.62 113.905-91.835z" />
<glyph unicode="&#xe910;" horiz-adv-x="724" d="M501.908 700.915c-12.833-9.267-23.189 9.514-29.018 25.282l29.018-25.282zM356.19 626.070c-9.861 27.946-10.071 55.308 1.153 73.739-2.073-18.657 0.589-39.317 10.478-55.524 0.273 25.93-3.263 39.002 21.79 48.392 17.046 6.389 34.241 2.789 49.033-3.578 38.121-16.411 67.515-54.602 116.983-54.623 1.773-10.409 2.394-19.152 12.566-21.199 6.18-1.243 9.57-0.456 15.495 1.339 6.819 2.068 7.208 3.532 12.58 8.604-102.725 14.945-48.461 136.113-144.719 162.258-38.178 10.369-89.644-4.154-110.624-42.649-17.547-32.197-6.919-89.669 15.266-116.761z" />
<glyph unicode="&#xe911;" horiz-adv-x="724" d="M339.444 621.906c-10.453 28.022-27.566 59.938-21.708 96.955 12.546 79.273 70.898 70.062 109.368 100.892 20.996 16.826 40.020 80.247 43.65 107.701-58.251-65.251-101.332-79.415-143.702-122.428-31.1-31.572-40.929-73.864-26.496-115.811 8.084-23.494 23.46-46.353 38.888-67.309z" />
<glyph unicode="&#xe912;" horiz-adv-x="724" d="M191.179 603.817c5.535-31.7 20.203-59.599 41.664-82.511 33.822-36.113 83.366-59.853 131.77-66.598-73.312 19.404-155.22 76.068-154.744 167.364-2.397 67.082 42.498 119.038 83.624 167.042-57.526-46.031-116.43-104.454-102.313-185.296z" />
<glyph unicode="&#xe913;" horiz-adv-x="724" d="M479.377 477.23c2.393-4.8 4.684-9.987 6.874-15.716 10.615-27.762 11.595-60.656 4.444-88.851-26.51-104.546-191.176-136.779-281.021-143.508 129.606-6.22 416.465 64.596 305.13 242.281-11.82 18.864-28.573 36.893-47.545 52.23-19.086 15.43-40.418 28.138-61.234 36.238 31.199-26.435 54.57-45 73.351-82.674z" />
<glyph unicode="&#xe914;" horiz-adv-x="724" d="M507.994 499.468c-12.469 19.98-22.939 30.168-41.284 43.93-4.002 3.003-8.092 5.968-12.199 8.896-30.341 21.624-61.717 41.19-66.396 58.171-4.823 17.511 8.636 27.546 22.713 29.813 14.128 2.276 27.993-2.639 42.509-11.087 18.426-10.724 37.912-24.628 60.325-27.813 23.915-3.399 41.492 2.732 61.935 5.412-33.854-0.758-56.155-7.504-95.574 18.577-19.608 12.973-45.428 43.088-82.524 28.409-29.431-11.646-35.603-43.459 2.588-71.158 5.773-3.705 11.676-8.168 17.639-11.858 8.615-5.333 18.958-11.945 29.611-18.782 4.104-2.635 8.255-5.304 12.372-7.946 24.939-16.011 30.912-23.739 48.285-44.563z" />
<glyph unicode="&#xe915;" horiz-adv-x="724" d="M519.158 888.848c-25.765-40.949-57.58-70.673-95.282-89.478 16.727 1.841 32.16-0.119 45.939-6.86 40.259 23.846 48.874 51.397 49.343 96.338z" />
<glyph unicode="&#xe916;" horiz-adv-x="724" d="M328.945 529.598c-75.036 54.823-100.684 123.724-53.097 215.040-7.597-12.369-15.619-22.348-21.631-33.929-15.5-29.86-20.521-60.993-11.218-93.506 10.986-38.396 42.497-70.275 85.946-87.605z" />
<glyph unicode="&#x1f508;" horiz-adv-x="724" d="M355.069 108.249c95.362-5.406 180.539 2.75 204.566-104.889-82.172 36.808-118.69 26.307-204.566 26.307l28.862 21.085-28.862 18.198 30.063 17.147-30.063 22.157zM187.825 22.917c137.483-33.283 358.1 14.58 396.802-77.717 6.198 65.879-14.068 131.943-71.57 160.782-91.021 45.638-241.113 3.762-327.853 6.76-41.488 1.423-107.026 25.088-83.674 80.009 12.427 29.228 53.347 52.81 108.526 73.309-62.108-19.315-115.164-38.702-140.535-79.379-12.237-19.631-15.93-39.294-13.282-57.681 8.72-60.475 78.040-93.122 131.574-106.075z" />
<glyph unicode="&#x1f509;" horiz-adv-x="724" d="M332.659 603.85c-12.074 32.367-31.834 69.237-25.069 112.003 14.497 91.578 81.904 80.93 126.337 116.549 24.247 19.442 46.232 92.698 50.422 124.397-67.294-75.376-117.059-91.73-165.997-141.41-35.929-36.464-47.272-85.322-30.609-133.771 9.329-27.145 27.092-53.54 44.921-77.742z" />
<glyph unicode="&#x1f50a;" horiz-adv-x="724" d="M161.403 582.942c6.398-36.621 23.34-68.839 48.132-95.312 39.067-41.709 96.299-69.136 152.214-76.921-84.69 22.413-179.292 87.859-178.75 193.316-2.762 77.482 49.094 137.497 96.589 192.946-66.449-53.169-134.493-120.665-118.191-214.046z" />
<glyph unicode="&#x1f50b;" horiz-adv-x="724" d="M494.29 436.725c2.757-5.536 5.406-11.539 7.935-18.157 12.26-32.074 13.389-70.070 5.139-102.641-30.631-120.762-220.823-157.992-324.616-165.765 149.707-7.176 481.058 74.621 352.449 279.865-13.652 21.781-33.005 42.615-54.911 60.337-22.038 17.82-46.692 32.505-70.724 41.861 36.038-30.535 63.033-51.984 84.732-95.501z" />
<glyph unicode="&#x1f50c;" horiz-adv-x="724" d="M520.328 695.102c-14.826-10.712-26.776 10.984-33.523 29.201l33.523-29.201zM352.001 608.662c-11.396 32.276-11.633 63.889 1.333 85.183-2.391-21.547 0.673-45.425 12.108-64.142 0.315 29.945-3.762 45.048 25.173 55.902 19.695 7.372 39.547 3.219 56.633-4.141 44.036-18.951 77.988-63.067 135.136-63.094 2.055-12.029 2.758-22.119 14.51-24.495 7.135-1.427 11.050-0.536 17.901 1.549 7.871 2.382 8.317 4.078 14.527 9.944-118.654 17.264-55.986 157.22-167.167 187.43-44.099 11.981-103.543-4.795-127.785-49.269-20.264-37.198-7.998-103.584 17.631-134.878z" />
<glyph unicode="&#x1f50d;" horiz-adv-x="724" d="M320.537 497.214c-86.673 63.32-116.302 142.92-61.335 248.388-8.769-14.286-18.051-25.823-24.991-39.189-17.91-34.489-23.703-70.463-12.957-108.019 12.682-44.352 49.094-81.173 99.283-101.191z" />
<glyph unicode="&#x1f50e;" horiz-adv-x="724" d="M527.356 462.421c-14.397 23.080-26.5 34.852-47.694 50.738-4.625 3.464-9.342 6.895-14.088 10.274-35.056 24.98-71.286 47.577-76.695 67.188-5.575 20.225 9.969 31.826 26.235 34.428 16.323 2.624 32.34-3.055 49.094-12.803 21.275-12.386 43.783-28.447 69.686-32.131 27.622-3.929 47.929 3.153 71.539 6.249-39.105-0.871-64.863-8.671-110.403 21.465-22.657 14.985-52.473 49.778-95.316 32.816-33.987-13.446-41.128-50.2 2.997-82.196 6.67-4.27 13.497-9.441 20.382-13.688 9.958-6.164 21.907-13.804 34.204-21.7 4.74-3.047 9.531-6.124 14.291-9.183 28.799-18.493 35.7-27.412 55.779-51.48z" />
</font>
</defs>
</svg>
